<svg width="299" height="322" viewBox="0 0 299 322" fill="none" xmlns="http://www.w3.org/2000/svg">
<path d="M0.99901 135C0.999012 113.836 1.41421 93.1607 0.856352 72.5117C0.469856 58.2057 11.146 45.7023 26.6629 46.7581C33.1108 47.1969 39.6134 46.831 46.8311 46.831C46.8311 41.6138 47.0986 36.6707 46.7829 31.7651C45.6631 14.3659 59.8614 -0.0140058 77.6517 0.974395C81.4741 1.18676 85.3296 0.879897 89.1426 1.17032C103.314 2.24973 114.514 13.8075 115.073 28.0069C115.313 34.1186 115.113 40.2477 115.113 46.5956C138.206 46.5956 160.783 46.5956 183.927 46.5956C183.927 41.1593 183.877 35.8823 183.937 30.6065C184.133 13.1518 196.049 1.21286 213.469 1.00787C217.134 0.964737 220.805 0.926796 224.466 1.0725C239.922 1.68769 251.401 12.8925 252.136 28.2749C252.421 34.2308 252.183 40.2117 252.183 46.831C259.243 46.831 265.838 46.8189 272.434 46.8333C289.003 46.8696 298.065 55.8877 298.068 72.4235C298.08 146.747 298.079 221.071 298.069 295.395C298.067 311.782 288.807 320.996 272.343 320.997C190.521 321.006 108.698 321.007 26.8747 320.996C10.196 320.994 1.00655 311.746 1.00308 294.979C0.992079 241.82 0.99901 188.66 0.99901 135ZM200.5 115.168C141.74 115.168 82.9805 115.168 24.2788 115.168C24.2788 176.506 24.2788 237.229 24.2788 297.796C108.052 297.796 191.476 297.796 274.801 297.796C274.801 236.815 274.801 176.108 274.801 115.168C250.124 115.168 225.812 115.168 200.5 115.168ZM229.708 37.5958C229.708 36.266 229.713 34.9361 229.707 33.6063C229.664 25.0518 228.525 23.9289 219.89 23.922C218.062 23.9205 216.233 23.9031 214.405 23.9253C208.277 23.9996 206.861 25.379 206.842 31.6178C206.8 45.4146 206.829 59.2116 206.829 73.0085C206.829 87.0245 206.829 87.0245 220.911 86.84C228.094 86.7459 229.675 85.2023 229.697 77.9674C229.735 64.8355 229.708 51.7034 229.708 37.5958ZM87.8957 24.0739C84.2323 24.0257 80.5681 23.9063 76.9057 23.9461C71.2982 24.007 69.7604 25.5251 69.7128 31.0465C69.6582 37.3768 69.6993 43.7079 69.7002 50.0387C69.7017 60.0347 69.7238 70.0307 69.6975 80.0266C69.6864 84.2472 71.7286 87.0757 75.9099 86.6881C81.4178 86.1777 88.1484 89.7561 92.0048 82.6662C92.3713 81.9924 92.2869 81.0333 92.2876 80.2066C92.3023 63.7132 92.4293 47.2176 92.1429 30.7292C92.1047 28.5286 89.9534 26.3647 87.8957 24.0739Z" fill="#010101"/>
<path d="M201 115.168C225.812 115.168 250.124 115.168 274.801 115.168C274.801 176.108 274.801 236.815 274.801 297.796C191.476 297.796 108.052 297.796 24.2788 297.796C24.2788 237.229 24.2788 176.506 24.2788 115.168C82.9805 115.168 141.74 115.168 201 115.168ZM227.109 179.605C237.619 169.095 237.619 169.095 227.591 159.091C222.395 153.908 220.443 153.866 215.231 159.071C190.838 183.436 166.457 207.814 142.116 232.232C140.873 233.48 140.047 235.142 138.847 236.871C126.892 224.904 115.958 213.957 105.021 203.014C94.83 192.818 94.828 192.82 84.7842 202.918C79.7504 207.978 79.7436 210.227 84.8481 215.339C100.266 230.778 115.697 246.204 131.126 261.632C137.284 267.791 138.902 267.81 144.989 261.725C172.2 234.522 199.403 207.313 227.109 179.605Z" fill="#FEFEFE"/>
<path d="M229.708 38.0836C229.708 51.7034 229.735 64.8355 229.697 77.9674C229.675 85.2023 228.094 86.7459 220.91 86.84C206.828 87.0246 206.828 87.0246 206.828 73.0085C206.829 59.2116 206.8 45.4146 206.842 31.6178C206.861 25.379 208.277 23.9996 214.405 23.9253C216.233 23.9031 218.062 23.9205 219.89 23.922C228.525 23.9289 229.664 25.0518 229.707 33.6063C229.713 34.9361 229.708 36.266 229.708 38.0836Z" fill="#FBFBFB"/>
<path d="M88.3383 24.1288C89.9535 26.3647 92.1047 28.5286 92.143 30.7293C92.4294 47.2176 92.3024 63.7132 92.2877 80.2066C92.287 81.0333 92.3714 81.9924 92.0049 82.6662C88.1484 89.7562 81.4179 86.1777 75.91 86.6882C71.7287 87.0757 69.6864 84.2472 69.6975 80.0266C69.7238 70.0307 69.7018 60.0347 69.7003 50.0387C69.6993 43.7079 69.6582 37.3768 69.7129 31.0465C69.7605 25.5251 71.2983 24.007 76.9058 23.9461C80.5682 23.9063 84.2324 24.0257 88.3383 24.1288Z" fill="#FEFEFE"/>
<path d="M226.858 179.856C199.403 207.313 172.2 234.522 144.989 261.725C138.902 267.81 137.284 267.791 131.126 261.632C115.697 246.204 100.266 230.778 84.848 215.339C79.7435 210.227 79.7503 207.978 84.7841 202.918C94.8279 192.82 94.8299 192.818 105.021 203.014C115.958 213.957 126.892 224.904 138.847 236.871C140.047 235.142 140.873 233.48 142.116 232.232C166.457 207.814 190.837 183.436 215.231 159.071C220.443 153.866 222.395 153.908 227.591 159.091C237.619 169.095 237.619 169.095 226.858 179.856Z" fill="#020202"/>
</svg>
