<svg width="300" height="314" viewBox="0 0 300 314" fill="none" xmlns="http://www.w3.org/2000/svg">
<path d="M138.667 9.54007e-07C143.356 1.6846 147.823 3.13156 152.05 5.09326C175.444 15.948 186.807 34.7026 187.294 60.1436C187.549 73.4486 186.998 86.7677 187.064 100.079C187.074 101.958 188.068 104.276 189.388 105.629C195.791 112.194 197.906 119.853 195.478 128.556C192.919 137.732 186.604 143.309 177.294 145.004C173.837 145.633 172.264 147.149 171.204 150.356C166.62 164.22 158.109 175.265 146.407 183.92C141.342 187.666 141.571 189.724 144.793 195.004C151.235 205.562 159.747 210.448 172.337 208.244C183.297 206.326 192.826 210.524 201.792 216.418C202.02 216.017 201.99 215.999 201.587 216.284C201.381 217.18 201.577 217.792 201.836 218.73C203.257 221.038 204.617 223.019 206.064 225.369C207.024 230.424 208.582 235.101 208.647 239.799C208.927 259.86 208.752 279.927 208.787 299.992C208.791 301.961 209.093 303.929 208.769 305.925C206.662 305.884 205.042 305.816 203.526 305.309C203.661 282.241 203.833 259.609 203.665 236.98C203.57 224.345 192.342 213.445 179.837 213.323C179.151 213.317 178.46 213.891 176.896 214.581C178.548 215.679 179.512 216.408 180.554 216.999C186.835 220.567 190.372 225.696 190.267 233.163C190.166 240.46 186.53 245.328 180.329 248.649C179.034 249.342 177.823 250.192 176.182 250.978C173.511 250.662 171.23 250.337 168.648 249.823C165.652 248.295 164.591 249.557 163.695 252.088C160.592 260.851 157.053 269.464 154.126 278.283C152.856 282.108 150.84 283.626 146.952 283.47C144.619 283.376 142.264 283.842 139.686 284.078C142.948 290.632 142.999 290.716 137.218 294.239C130.134 298.555 122.953 302.711 115.551 306.984C114.991 307.445 114.695 307.86 114.398 308.275C114.875 308.316 115.351 308.357 116.303 308.34C138.855 308.197 160.933 308.112 183.241 308.298C186.65 310.051 189.828 311.532 192.539 313.06C131.822 313.119 71.5719 313.126 11.3218 313.155C9.17056 313.156 7.01945 313.373 4.46823 313.421C0.447691 313.387 0.286029 310.929 0.288401 308.234C0.308933 284.911 0.101479 261.586 0.366676 238.266C0.571349 220.268 13.2422 208.234 31.3737 208.154C37.5375 208.128 43.7074 208.296 49.8618 208.054C51.6303 207.984 53.8419 207.25 55.0069 206.022C58.4353 202.406 61.5354 198.462 64.5856 194.509C67.8995 190.214 67.3725 187.309 62.9832 184.113C51.3474 175.64 42.8591 164.724 38.1803 151.106C36.8902 147.351 35.1571 145.612 31.1488 144.82C22.3053 143.073 16.3685 137.588 13.6772 128.838C10.9533 119.983 13.5575 112.579 19.5191 105.834C20.9727 104.189 22.0252 101.57 22.0525 99.3843C22.2373 84.5611 21.9496 69.7323 22.0964 54.9081C22.3397 30.3476 36.7532 10.7698 59.9946 2.92254C62.0868 2.21614 64.0023 0.986596 65.9999 9.54007e-07C66.7499 -4.59926e-08 67.4999 2.98023e-08 68.8438 0.370239C91.4517 0.82993 113.466 0.926161 135.48 0.966428C135.986 0.967354 136.493 0.33628 137 3.3309e-10C137.444 3.3309e-10 137.889 -4.59926e-08 138.667 9.54007e-07ZM96.0895 302.527C96.3297 302.478 96.5698 302.43 96.8099 302.381C96.6414 302.151 96.4729 301.922 96.3471 300.946C91.0877 290.205 85.8592 279.448 80.5621 268.726C71.8769 251.144 63.1738 233.572 54.3762 216.047C53.7944 214.888 52.3995 213.44 51.2965 213.363C46.8853 213.055 42.4401 213.236 37.4753 213.236C37.8386 215.193 37.8977 216.497 38.3254 217.667C45.3471 236.874 52.3577 256.085 59.5963 275.209C60.1047 276.553 62.303 277.923 63.839 278.081C67.7927 278.488 71.8224 278.095 75.8069 278.304C76.9544 278.365 78.5763 279.133 79.0146 280.042C79.4034 280.848 78.6921 282.462 78.041 283.434C76.7871 285.307 75.2327 286.979 73.3741 289.261C81.2622 293.77 88.5727 297.95 96.0895 302.527ZM169.978 91.7004C169.57 83.6761 169.57 83.6767 161.781 83.6758C145.953 83.674 130.125 83.6744 114.297 83.6679C105.831 83.6644 98.1509 81.4287 91.9235 75.4307C89.6889 73.2784 87.7318 70.8382 85.5089 68.3752C80.3306 79.3943 71.5199 83.851 59.9813 83.6787C57.9825 83.6489 55.9828 83.676 53.9835 83.6757C39.208 83.6733 39.0719 83.6732 39.063 98.4994C39.0605 102.727 37.6479 104.322 33.4338 104.789C24.4755 105.783 18.0694 113.243 17.8963 122.153C17.7278 130.832 24.276 139.346 33.0327 139.766C39.2249 140.062 40.9858 142.938 42.698 147.983C52.0987 175.685 76.4616 192.497 106.082 192.124C134.136 191.772 158.495 173.727 166.986 146.608C168.373 142.178 170.035 140.116 175.069 139.951C183.546 139.671 190.448 132.355 191.131 124.194C191.866 115.412 186.477 107.457 178.222 105.14C170.064 102.849 170.064 102.849 170.014 94.1396C170.011 93.6398 170.003 93.1401 169.978 91.7004ZM181.526 55.0759C179.876 48.7526 179.064 42.0529 176.423 36.1747C167.44 16.1806 151.36 6.38856 129.619 6.05086C113.133 5.79477 96.6396 6.0707 80.1502 5.97121C71.4697 5.91883 63.1986 6.71536 55.1015 10.6897C41.1911 17.5174 31.9346 27.9963 29.1782 43.0762C27.3753 52.9402 27.6995 63.1881 26.9801 73.2576C26.705 77.1085 28.5793 78.0947 32.0881 78.0495C42.7465 77.9121 53.4313 78.4026 64.0555 77.7838C67.8446 77.5632 71.8624 75.4122 75.1207 73.1842C81.4413 68.8622 81.946 61.9201 82.1111 54.9418C82.1415 53.6579 83.5773 52.4073 84.3644 51.1413C85.3929 52.0873 86.6595 52.8844 87.3739 54.0269C87.9373 54.9278 87.876 56.2481 87.9977 57.3922C89.1902 68.597 99.5862 77.6877 109.142 77.8614C132.121 78.2791 155.112 77.9514 178.098 78.0529C181.239 78.0668 182.14 76.8739 182.04 73.9299C181.838 67.9418 181.881 61.9454 181.526 55.0759ZM5.75946 271.5C5.75976 281.993 5.93941 292.491 5.67095 302.977C5.56547 307.097 6.75283 308.362 10.9551 308.333C36.9367 308.151 62.9203 308.246 88.9031 308.231C90.3051 308.231 91.707 308.072 94.2206 307.92C92.5149 306.811 91.7528 306.286 90.9625 305.806C83.9886 301.58 77.032 297.323 70.0217 293.158C67.0419 291.387 65.8676 289.41 68.4589 286.381C68.9026 285.862 68.8981 284.96 69.202 283.873C67.3533 283.77 65.8474 283.448 64.4144 283.648C58.8958 284.42 56.2524 282.196 54.3612 276.776C47.4036 256.834 39.7083 237.15 32.5807 217.265C31.2311 213.5 29.4373 212.955 25.9387 213.709C13.4501 216.4 5.9457 225.223 5.80218 238.022C5.68081 248.847 5.76461 259.674 5.75946 271.5ZM149.023 276.883C152.338 268.01 155.565 259.102 159.017 250.282C160.209 247.237 160.056 244.893 158.227 241.967C151.92 231.882 156.855 219.522 168.246 216C169.469 215.622 170.646 215.096 171.844 214.638C171.75 214.155 171.655 213.673 171.56 213.19C167.823 213.19 164.073 213.379 160.352 213.132C157.174 212.921 155.583 214.329 154.238 217.041C140.938 243.879 127.527 270.662 114.18 297.477C113.521 298.8 113.162 300.272 112.663 301.675C113.02 301.922 113.377 302.168 113.734 302.415C120.979 298.008 128.224 293.601 135.832 288.973C134.057 286.935 132.816 285.796 131.941 284.423C131.11 283.122 130.663 281.576 130.047 280.137C131.599 279.498 133.113 278.448 134.711 278.299C139.308 277.871 143.939 277.807 149.023 276.883ZM91.9196 227.406C94.6617 224.4 97.4037 221.395 100.398 218.113C89.9292 210.714 79.9733 203.677 69.7798 196.472C66.5479 200.369 63.9342 204.035 60.7869 207.164C57.8511 210.084 58.2044 212.642 59.9537 215.932C63.6881 222.955 67.09 230.154 70.6896 237.25C71.9153 239.666 73.3253 241.989 74.3587 243.833C80.288 238.301 85.8563 233.105 91.9196 227.406ZM143.21 227.688C145.505 223.079 147.896 218.515 150.024 213.831C150.552 212.669 150.828 210.672 150.195 209.824C146.848 205.338 143.174 201.097 139.327 196.424C128.987 203.79 119.077 210.85 107.989 218.75C117.565 227.387 126.377 235.335 135.287 243.37C137.514 238.966 140.196 233.66 143.21 227.688ZM93.7598 283.545C97.1877 290.379 100.616 297.212 104.636 305.228C109.254 295.856 113.256 287.878 117.073 279.812C117.569 278.764 117.315 277.221 117.057 275.981C116.147 271.604 115.097 267.256 114.074 262.904C111.712 252.858 111.707 252.98 101.269 253.142C98.1581 253.191 96.7974 254.361 96.2038 257.272C94.9788 263.28 93.2888 269.205 92.3346 275.249C91.954 277.66 93.0141 280.298 93.7598 283.545ZM99.6307 197.123C90.5312 195.362 81.4318 193.601 72.4955 191.872C72.754 192.166 73.1891 192.904 73.828 193.352C82.6493 199.529 91.5895 205.541 100.291 211.88C103.294 214.068 105.488 214.368 108.612 212.042C117.018 205.784 125.695 199.89 134.232 193.806C135.271 193.065 136.112 192.045 137.045 191.154C136.815 190.799 136.585 190.443 136.355 190.088C124.995 195.504 113.085 197.916 99.6307 197.123ZM97.4507 228.989C93.2244 231.894 92.5501 235.574 94.7591 240.116C95.5399 241.722 95.4835 243.735 96.2685 245.337C96.8228 246.468 98.0313 247.827 99.1518 248.048C109.784 250.141 112.387 248.49 114.92 238.098C115.349 236.338 115.786 233.711 114.869 232.65C111.675 228.952 107.889 225.765 103.928 222.004C101.987 224.109 99.9713 226.295 97.4507 228.989ZM177.368 244.305C178.224 243.797 179.091 243.304 179.936 242.777C184.711 239.8 185.654 235.193 184.94 230.139C184.298 225.592 181.307 222.435 177.093 221.286C172.306 219.982 167.509 220.36 163.797 224.575C160.543 228.27 159.801 233.895 162.183 238.556C164.833 243.741 169.318 245.621 177.368 244.305ZM128.468 246.218C125.973 243.702 123.479 241.186 120.935 238.62C114.15 249.647 118.444 259.523 121.685 269.591C124.816 264.552 127.273 259.334 130.034 254.283C131.644 251.338 131.478 248.97 128.468 246.218ZM80.2847 246.977C79.4903 248.503 77.6448 250.479 78.0736 251.482C80.7076 257.643 83.8557 263.585 86.8328 269.6C87.3166 269.461 87.8004 269.322 88.2843 269.183C90.6273 259.263 94.8505 249.381 88.1557 238.64C85.5183 241.441 83.1604 243.945 80.2847 246.977ZM27.0038 96.0707C27.9603 97.3183 28.9533 99.6042 29.8647 99.5721C31.2608 99.5229 33.6623 97.9878 33.7773 96.8888C34.2326 92.539 33.9644 88.1136 33.9644 83.5869C28.5634 82.4238 27.0946 83.5019 27.0053 89.1899C26.974 91.1843 27.0004 93.1795 27.0038 96.0707ZM180.002 83.5422C177.685 82.6955 175.426 82.6891 175.156 85.6815C174.815 89.4444 174.753 93.3021 175.25 97.0281C175.397 98.1277 177.754 99.1625 179.283 99.7333C179.89 99.96 181.775 98.8164 181.757 98.3472C181.573 93.5452 181.118 88.7536 180.002 83.5422Z" fill="#456BCD"/>
<path d="M259.976 244.188C258.902 244.419 257.828 244.649 256.199 244.653C255.084 244.702 254.523 244.978 253.963 245.253C253.818 245.405 253.673 245.557 252.81 245.848C249.782 245.98 247.47 245.974 245.101 245.955C245.043 245.943 245.077 245.83 245.016 245.531C244.004 245.062 243.052 244.891 241.712 244.781C227.555 242.677 216.648 235.795 208.182 224.435C206.444 221.351 204.779 218.604 202.809 215.71C202.334 215.707 202.162 215.853 201.99 215.999C201.99 215.999 202.02 216.017 202.027 216.033C202.162 215.591 202.509 215.061 202.386 214.685C195.765 194.483 199.764 173.679 199.013 153.156C198.819 147.869 201.915 143.456 206.787 141.186C215.037 137.342 223.838 136.109 232.911 137.032C233.399 137.082 233.936 137.186 234.339 137.44C239.657 140.799 237.319 146.13 237.496 150.681C237.633 154.209 235.053 156.214 231.674 156.241C225.954 156.286 220.231 155.898 213.959 155.673C213.906 156.488 213.719 158.066 213.716 159.644C213.693 170.973 213.668 182.303 213.719 193.632C213.813 214.137 227.807 229.61 247.243 230.767C266.302 231.901 283.003 217.55 284.444 197.4C285.448 183.359 284.637 169.188 284.637 155.526C278.792 155.837 273.264 156.263 267.731 156.387C263.075 156.491 260.641 153.985 260.607 149.299C260.59 146.97 260.502 144.618 260.773 142.315C261.176 138.887 263.145 137.206 266.755 136.869C274.505 136.144 281.928 137.591 289.117 140.082C295.75 142.379 299.548 147.529 299.554 154.504C299.568 170.814 299.859 187.18 298.641 203.419C297.288 221.472 281.01 238.963 262.661 243.237C261.308 243.487 260.642 243.837 259.976 244.188ZM287.507 208.778C286.503 210.88 285.595 213.036 284.479 215.076C276.047 230.49 257.07 238.986 240.333 234.884C221.477 230.263 208.975 214.977 208.86 196.247C208.779 183.092 208.867 169.936 208.812 156.781C208.799 153.643 209.04 150.864 212.34 149.182C213.165 148.762 213.354 147.092 213.835 145.996C212.533 145.816 211.011 145.11 209.969 145.548C205.681 147.348 203.857 150.808 203.885 155.466C203.96 168.121 204.287 180.791 203.832 193.43C202.798 222.15 229.021 244.838 256.417 239.901C271.984 237.095 283.337 228.535 290.258 214.056C293.609 207.047 294.382 199.703 294.403 192.216C294.441 178.925 294.477 165.616 293.737 152.359C293.595 149.826 289.992 147.362 287.691 145.177C287.208 144.719 285.427 145.628 284.245 145.907C284.698 147.01 284.859 148.737 285.655 149.11C289.543 150.936 290.007 154.124 289.978 157.842C289.891 168.832 290.182 179.83 289.85 190.811C289.676 196.569 288.509 202.297 287.507 208.778ZM267.88 142.073C267.314 144.552 266.509 147.021 266.411 149.518C266.394 149.952 269.342 150.603 270.963 150.962C271.909 151.172 272.948 150.922 273.932 151.015C277.156 151.318 279.09 150.841 279.156 146.663C279.225 142.269 277.226 141.677 273.756 141.976C272.113 142.118 270.448 142.009 267.88 142.073ZM220.908 142.068C220.324 142.565 219.379 142.964 219.212 143.576C217.604 149.455 219.289 150.979 226.831 151.041C229.952 151.066 232.099 151.028 232.157 146.733C232.214 142.395 230.353 141.636 226.793 141.974C225.146 142.13 223.473 142.008 220.908 142.068Z" fill="#446DCF"/>
<path d="M245.159 245.967C247.47 245.974 249.781 245.98 252.526 245.985C252.984 257.276 253.077 268.568 253.014 279.859C252.926 295.691 244.867 306.833 229.173 312.181C228.014 312.501 227.512 312.774 227.009 313.047C225.306 313.141 223.602 313.235 221.478 313.399C212.017 313.354 202.977 313.239 193.472 313.068C189.828 311.532 186.65 310.051 183.059 308.019C173.335 300.461 168.871 291.124 168.973 279.482C169.06 269.659 168.964 259.835 168.949 250.012C171.23 250.337 173.511 250.662 176.317 251.433C176.875 260.995 176.894 270.11 176.942 279.224C177.026 295.216 187.426 305.625 203.421 305.748C205.042 305.816 206.662 305.884 209.207 305.874C213.464 305.751 216.806 305.853 220.126 305.637C235.744 304.623 245.037 294.66 245.09 278.964C245.127 267.965 245.137 256.966 245.159 245.967Z" fill="#547BCB"/>
<path d="M260.257 244.304C260.642 243.837 261.308 243.487 262.286 243.203C261.912 243.654 261.226 244.037 260.257 244.304Z" fill="#547BCB"/>
<path d="M254.226 245.358C254.523 244.978 255.084 244.702 255.785 244.612C255.446 245.019 254.968 245.242 254.226 245.358Z" fill="#547BCB"/>
<path d="M169.987 92.1704C170.003 93.1401 170.012 93.6398 170.014 94.1396C170.064 102.849 170.064 102.849 178.222 105.14C186.477 107.457 191.866 115.412 191.131 124.194C190.448 132.355 183.547 139.671 175.07 139.951C170.035 140.116 168.373 142.178 166.986 146.608C158.495 173.727 134.136 191.772 106.082 192.124C76.4618 192.497 52.0988 175.685 42.6982 147.983C40.986 142.938 39.2251 140.062 33.0328 139.766C24.2762 139.346 17.7279 130.832 17.8965 122.153C18.0695 113.243 24.4757 105.783 33.434 104.789C37.6481 104.322 39.0606 102.727 39.0632 98.4994C39.0721 83.6732 39.2082 83.6733 53.9836 83.6757C55.9829 83.676 57.9826 83.6489 59.9814 83.6787C71.52 83.851 80.3308 79.3943 85.509 68.3752C87.7319 70.8382 89.6891 73.2784 91.9236 75.4307C98.1511 81.4287 105.831 83.6644 114.298 83.6679C130.125 83.6744 145.953 83.674 161.781 83.6758C169.57 83.6767 169.57 83.6761 169.987 92.1704ZM75.7225 113.813C73.0255 110.596 69.5189 109.93 65.8644 111.412C62.0426 112.962 60.7462 116.271 60.9943 120.315C61.1461 122.788 60.9236 125.284 61.0738 127.758C61.3273 131.931 64.57 135.444 68.5408 135.698C72.9563 135.98 76.3962 133.707 76.828 129.53C77.338 124.596 76.4207 119.514 75.7225 113.813ZM148.089 124.378C148.062 122.222 148.25 120.036 147.962 117.914C147.373 113.58 144.803 111.057 140.364 110.8C134.728 110.473 131.958 114.099 131.63 122.038C131.267 130.796 134.002 135.563 139.509 135.769C144.718 135.964 147.827 132.168 148.089 124.378ZM112.599 161.368C114.801 160.226 117.283 159.406 119.106 157.827C120.314 156.781 120.58 154.645 121.267 152.997C119.543 153.181 117.469 152.808 116.154 153.639C108.475 158.486 100.991 158.504 93.2187 153.853C91.7615 152.981 89.574 153.33 87.7235 153.115C88.608 154.848 89.049 157.195 90.4529 158.21C96.9214 162.882 104.26 163.327 112.599 161.368Z" fill="#F4CCCE"/>
<path d="M181.674 55.5141C181.881 61.9454 181.838 67.9418 182.04 73.9299C182.14 76.8739 181.239 78.0668 178.098 78.0529C155.112 77.9514 132.121 78.2791 109.142 77.8614C99.5863 77.6877 89.1902 68.597 87.9977 57.3922C87.876 56.2481 87.9373 54.9278 87.374 54.0269C86.6596 52.8844 85.3929 52.0873 84.3644 51.1413C83.5773 52.4073 82.1415 53.6579 82.1111 54.9418C81.9461 61.9201 81.4413 68.8622 75.1207 73.1842C71.8624 75.4122 67.8446 77.5632 64.0555 77.7838C53.4314 78.4026 42.7465 77.9121 32.0881 78.0495C28.5794 78.0947 26.705 77.1085 26.9802 73.2576C27.6995 63.1881 27.3753 52.9402 29.1782 43.0762C31.9346 27.9963 41.1911 17.5174 55.1016 10.6897C63.1987 6.71536 71.4697 5.91883 80.1502 5.97121C96.6396 6.0707 113.133 5.79477 129.619 6.05086C151.36 6.38856 167.44 16.1806 176.423 36.1747C179.064 42.0529 179.876 48.7526 181.674 55.5141Z" fill="#4670C5"/>
<path d="M5.75872 271C5.7648 259.674 5.68099 248.847 5.80237 238.022C5.94589 225.223 13.4503 216.4 25.9388 213.709C29.4375 212.955 31.2313 213.5 32.5809 217.265C39.7085 237.15 47.4038 256.834 54.3614 276.776C56.2526 282.196 58.896 284.42 64.4146 283.648C65.8475 283.448 67.3535 283.77 69.2022 283.873C68.8983 284.96 68.9028 285.862 68.4591 286.381C65.8678 289.41 67.0421 291.387 70.0219 293.158C77.0322 297.323 83.9888 301.58 90.9627 305.806C91.753 306.286 92.5151 306.811 94.2208 307.92C91.7072 308.072 90.3053 308.231 88.9033 308.231C62.9205 308.246 36.9369 308.151 10.9553 308.333C6.75302 308.362 5.56566 307.097 5.67114 302.977C5.9396 292.491 5.75994 281.993 5.75872 271Z" fill="#DDE8FA"/>
<path d="M245.101 245.955C245.137 256.966 245.126 267.965 245.09 278.964C245.037 294.66 235.744 304.623 220.126 305.637C216.805 305.853 213.464 305.751 209.694 305.847C209.093 303.929 208.791 301.961 208.787 299.992C208.752 279.927 208.927 259.86 208.647 239.799C208.582 235.101 207.024 230.424 206.446 225.356C207.244 224.907 207.748 224.839 208.253 224.772C216.648 235.795 227.555 242.677 241.929 245.024C243.381 245.413 244.229 245.621 245.076 245.83C245.076 245.83 245.042 245.943 245.101 245.955Z" fill="#FBFCFD"/>
<path d="M203.526 305.309C187.426 305.625 177.026 295.216 176.942 279.224C176.894 270.11 176.875 260.995 176.708 251.425C177.823 250.192 179.034 249.342 180.329 248.649C186.53 245.328 190.166 240.46 190.268 233.163C190.372 225.696 186.836 220.567 180.554 216.999C179.512 216.408 178.548 215.679 176.896 214.581C178.46 213.891 179.151 213.317 179.837 213.323C192.342 213.445 203.57 224.345 203.665 236.98C203.833 259.609 203.661 282.241 203.526 305.309Z" fill="#D9E4F8"/>
<path d="M95.8832 302.129C88.5727 297.95 81.2622 293.77 73.3741 289.261C75.2327 286.979 76.7871 285.307 78.041 283.434C78.6921 282.462 79.4034 280.848 79.0146 280.042C78.5763 279.133 76.9544 278.365 75.807 278.304C71.8225 278.095 67.7927 278.488 63.8391 278.081C62.303 277.923 60.1047 276.553 59.5963 275.209C52.3578 256.085 45.3471 236.874 38.3254 217.667C37.8977 216.497 37.8386 215.193 37.4753 213.236C42.4401 213.236 46.8853 213.055 51.2965 213.363C52.3995 213.44 53.7945 214.888 54.3762 216.047C63.1739 233.572 71.8769 251.144 80.5621 268.726C85.8592 279.448 91.0877 290.205 96.2199 301.428C96.0928 301.91 95.8832 302.129 95.8832 302.129Z" fill="#D8E4F8"/>
<path d="M168.649 249.823C168.964 259.835 169.06 269.659 168.973 279.482C168.871 291.124 173.335 300.461 182.828 307.747C160.933 308.112 138.855 308.197 116.28 307.975C115.793 307.424 115.804 307.18 115.815 306.937C122.953 302.711 130.134 298.555 137.218 294.239C143 290.716 142.948 290.632 139.687 284.078C142.264 283.842 144.619 283.376 146.952 283.47C150.84 283.626 152.856 282.108 154.126 278.283C157.053 269.464 160.592 260.851 163.695 252.088C164.591 249.557 165.652 248.295 168.649 249.823Z" fill="#DAE6F9"/>
<path d="M148.79 277.242C143.939 277.807 139.308 277.871 134.711 278.299C133.113 278.448 131.599 279.498 130.047 280.137C130.663 281.576 131.11 283.122 131.941 284.424C132.816 285.796 134.057 286.935 135.832 288.973C128.224 293.601 120.979 298.008 113.734 302.415C113.377 302.168 113.02 301.922 112.663 301.675C113.162 300.272 113.522 298.8 114.18 297.477C127.527 270.662 140.939 243.879 154.238 217.041C155.583 214.329 157.174 212.921 160.352 213.132C164.073 213.379 167.823 213.19 171.56 213.19C171.655 213.673 171.75 214.155 171.844 214.638C170.646 215.096 169.469 215.622 168.246 216C156.855 219.522 151.92 231.882 158.227 241.967C160.056 244.893 160.209 247.237 159.018 250.282C155.565 259.102 152.338 268.01 148.79 277.242Z" fill="#D7E3F8"/>
<path d="M91.6723 227.658C85.8565 233.105 80.2881 238.301 74.3589 243.833C73.3254 241.989 71.9155 239.666 70.6897 237.25C67.0902 230.154 63.6882 222.955 59.9539 215.932C58.2045 212.642 57.8512 210.084 60.787 207.164C63.9344 204.035 66.548 200.369 69.7799 196.472C79.9735 203.677 89.9293 210.714 100.398 218.113C97.4039 221.395 94.6618 224.4 91.6723 227.658Z" fill="#D9E5F9"/>
<path d="M143.045 228.021C140.196 233.66 137.514 238.966 135.287 243.37C126.377 235.335 117.565 227.387 107.989 218.75C119.077 210.85 128.988 203.79 139.327 196.424C143.174 201.097 146.848 205.338 150.195 209.824C150.828 210.672 150.552 212.669 150.024 213.831C147.896 218.515 145.505 223.079 143.045 228.021Z" fill="#DAE5F9"/>
<path d="M93.5892 283.189C93.0142 280.298 91.9541 277.66 92.3347 275.249C93.2889 269.205 94.9789 263.28 96.2039 257.272C96.7975 254.361 98.1582 253.191 101.27 253.142C111.707 252.98 111.712 252.858 114.074 262.904C115.097 267.256 116.147 271.604 117.057 275.981C117.315 277.221 117.569 278.764 117.073 279.812C113.256 287.878 109.254 295.856 104.636 305.228C100.616 297.212 97.1878 290.379 93.5892 283.189Z" fill="#F1A4A7"/>
<path d="M100.114 197.146C113.086 197.916 124.995 195.504 136.355 190.088C136.585 190.443 136.815 190.799 137.045 191.154C136.112 192.045 135.272 193.065 134.232 193.806C125.695 199.89 117.018 205.784 108.612 212.042C105.488 214.368 103.295 214.068 100.291 211.88C91.5896 205.541 82.6494 199.529 73.8281 193.352C73.1892 192.904 72.7541 192.166 72.4956 191.872C81.4319 193.601 90.5313 195.362 100.114 197.146Z" fill="#ECC7CD"/>
<path d="M97.7035 228.735C99.9715 226.295 101.987 224.109 103.928 222.004C107.889 225.765 111.676 228.952 114.87 232.65C115.786 233.711 115.349 236.338 114.92 238.098C112.387 248.49 109.784 250.141 99.152 248.048C98.0315 247.827 96.823 246.468 96.2687 245.337C95.4837 243.735 95.5401 241.722 94.7594 240.116C92.5503 235.574 93.2246 231.894 97.7035 228.735Z" fill="#F1A4A7"/>
<path d="M176.994 244.456C169.318 245.621 164.833 243.741 162.183 238.556C159.801 233.895 160.543 228.27 163.798 224.575C167.51 220.36 172.306 219.982 177.093 221.286C181.307 222.435 184.298 225.592 184.94 230.139C185.654 235.193 184.711 239.8 179.936 242.777C179.091 243.304 178.225 243.797 176.994 244.456ZM171.051 226.129C170.245 226.689 169.404 227.206 168.639 227.817C166.173 229.788 164.823 232.502 166.745 235.14C168.235 237.184 171.046 239.743 173.038 239.559C175.369 239.344 178.29 236.832 179.454 234.551C181.576 230.391 177.673 226.346 171.051 226.129Z" fill="#9FC3FA"/>
<path d="M128.715 246.496C131.478 248.97 131.645 251.338 130.035 254.283C127.273 259.334 124.816 264.552 121.685 269.591C118.444 259.523 114.151 249.647 120.935 238.62C123.479 241.186 125.973 243.702 128.715 246.496Z" fill="#D3E0F7"/>
<path d="M80.5438 246.713C83.1606 243.945 85.5185 241.441 88.1558 238.64C94.8507 249.381 90.6274 259.263 88.2844 269.183C87.8006 269.322 87.3168 269.461 86.8329 269.6C83.8559 263.585 80.7078 257.643 78.0737 251.482C77.6449 250.479 79.4905 248.503 80.5438 246.713Z" fill="#D4E1F7"/>
<path d="M27.0023 95.6226C27.0006 93.1795 26.9741 91.1843 27.0054 89.1899C27.0947 83.5019 28.5636 82.4238 33.9645 83.5869C33.9645 88.1136 34.2328 92.539 33.7775 96.8888C33.6625 97.9878 31.261 99.5229 29.8649 99.5721C28.9535 99.6042 27.9604 97.3183 27.0023 95.6226Z" fill="#446FC5"/>
<path d="M180.37 83.7506C181.118 88.7536 181.573 93.5452 181.757 98.3472C181.775 98.8164 179.89 99.96 179.283 99.7333C177.754 99.1625 175.397 98.1277 175.25 97.0281C174.753 93.3021 174.815 89.4444 175.156 85.6815C175.426 82.6891 177.685 82.6955 180.37 83.7506Z" fill="#446FC5"/>
<path d="M208.182 224.435C207.749 224.839 207.244 224.907 206.357 224.987C204.617 223.019 203.258 221.038 202.119 218.484C202.597 217.227 202.855 216.542 203.113 215.857C204.779 218.604 206.444 221.351 208.182 224.435Z" fill="#BECCED"/>
<path d="M202.809 215.71C202.855 216.542 202.597 217.227 202.057 218.157C201.577 217.792 201.381 217.18 201.587 216.284C202.162 215.853 202.334 215.707 202.809 215.71Z" fill="#FCFCFD"/>
<path d="M287.648 208.408C288.509 202.297 289.676 196.569 289.85 190.811C290.182 179.83 289.891 168.832 289.978 157.842C290.007 154.124 289.543 150.936 285.655 149.11C284.859 148.737 284.698 147.01 284.244 145.907C285.427 145.628 287.208 144.719 287.691 145.177C289.992 147.362 293.595 149.826 293.737 152.359C294.477 165.616 294.441 178.925 294.403 192.216C294.382 199.703 293.609 207.047 290.258 214.056C283.337 228.535 271.984 237.095 256.417 239.901C229.021 244.838 202.798 222.15 203.832 193.43C204.287 180.791 203.96 168.121 203.885 155.466C203.857 150.808 205.681 147.348 209.969 145.548C211.011 145.11 212.533 145.816 213.835 145.996C213.354 147.092 213.165 148.762 212.34 149.182C209.04 150.864 208.799 153.643 208.812 156.781C208.867 169.936 208.779 183.092 208.86 196.247C208.975 214.977 221.477 230.263 240.333 234.884C257.069 238.986 276.047 230.49 284.479 215.076C285.595 213.036 286.503 210.88 287.648 208.408Z" fill="#96BBF7"/>
<path d="M268.336 142.043C270.448 142.009 272.113 142.118 273.756 141.976C277.226 141.677 279.225 142.269 279.156 146.663C279.09 150.841 277.156 151.318 273.932 151.015C272.948 150.922 271.909 151.172 270.963 150.962C269.342 150.603 266.394 149.952 266.411 149.518C266.509 147.021 267.314 144.552 268.336 142.043Z" fill="#4570C5"/>
<path d="M221.36 142.04C223.473 142.008 225.146 142.13 226.793 141.974C230.353 141.636 232.214 142.395 232.157 146.733C232.099 151.028 229.952 151.066 226.831 151.041C219.289 150.979 217.604 149.455 219.212 143.576C219.379 142.964 220.324 142.565 221.36 142.04Z" fill="#456FC5"/>
<path d="M245.016 245.531C244.229 245.621 243.381 245.413 242.316 244.963C243.052 244.891 244.004 245.062 245.016 245.531Z" fill="#547BCB"/>
<path d="M75.9223 114.155C76.4207 119.514 77.338 124.596 76.828 129.53C76.3961 133.707 72.9563 135.98 68.5408 135.698C64.57 135.444 61.3273 131.931 61.0738 127.758C60.9236 125.284 61.146 122.788 60.9943 120.315C60.7461 116.271 62.0426 112.962 65.8644 111.412C69.5189 109.93 73.0254 110.596 75.9223 114.155Z" fill="#3F66CB"/>
<path d="M148.089 124.835C147.827 132.168 144.718 135.964 139.509 135.769C134.002 135.563 131.267 130.796 131.63 122.038C131.958 114.099 134.728 110.473 140.365 110.8C144.803 111.057 147.373 113.58 147.962 117.914C148.25 120.036 148.062 122.222 148.089 124.835Z" fill="#3F66CB"/>
<path d="M112.225 161.516C104.26 163.327 96.9213 162.882 90.4529 158.21C89.0489 157.195 88.6079 154.848 87.7234 153.115C89.5739 153.33 91.7614 152.981 93.2186 153.853C100.991 158.504 108.475 158.486 116.154 153.639C117.469 152.808 119.543 153.181 121.267 152.997C120.579 154.645 120.314 156.781 119.106 157.827C117.282 159.406 114.801 160.226 112.225 161.516Z" fill="#4B6DCB"/>
<path d="M171.441 226.065C177.673 226.346 181.576 230.391 179.454 234.551C178.29 236.832 175.369 239.344 173.038 239.559C171.046 239.743 168.235 237.184 166.745 235.14C164.823 232.502 166.173 229.788 168.639 227.817C169.404 227.206 170.245 226.689 171.441 226.065Z" fill="#DAE7FB"/>
</svg>
