<svg width="202" height="316" viewBox="0 0 202 316" fill="none" xmlns="http://www.w3.org/2000/svg">
<path d="M170.193 15.8005C186.613 29.8424 194.691 47.3998 194.794 68.6267C194.839 77.9567 194.871 87.2881 194.747 96.6168C194.718 98.8349 194.039 101.045 193.688 103.093C196.015 107.395 199.296 111.618 200.697 116.392C204.98 130.996 195.022 145.542 179.626 147.797C177.063 148.172 175.589 148.666 174.685 151.503C168.38 171.307 156.01 186.302 137.605 195.921C132.827 198.417 133.665 201.913 134.095 205.536C134.185 206.288 136.609 207.183 138.011 207.289C144.807 207.806 151.803 207.21 158.395 208.596C177.902 212.694 190.08 228.774 190.448 250.619C190.774 269.941 190.436 289.273 190.575 308.599C190.61 313.444 189.008 315.247 183.889 315.232C128.575 315.071 73.2593 315.127 17.944 315.142C14.6407 315.143 11.4193 315.352 11.4474 310.533C11.5695 289.545 10.8087 268.514 11.893 247.577C13.1784 222.759 29.6745 207.951 54.5449 207.385C58.042 207.305 61.5625 207.586 65.0324 207.267C66.6754 207.116 69.4837 206.083 69.5811 205.208C69.8781 202.535 70.95 199.582 67.2957 197.395C60.4777 193.315 53.6297 189.045 47.642 183.872C37.7406 175.319 31.2959 164.208 27.3217 151.764C26.4942 149.173 25.3693 148.205 22.5807 147.801C3.07269 144.972 -5.91849 124.157 5.12372 108.028C6.33749 106.255 7.07136 103.79 7.10387 101.632C7.28956 89.3053 7.12899 76.9741 7.21133 64.6454C7.34538 44.574 20.189 28.6758 39.7754 23.8882C41.8629 23.3779 44.1959 22.1319 45.5153 20.4999C54.4372 9.46357 65.7691 2.09463 79.878 1.43355C98.4858 0.561666 117.19 0.750474 135.811 1.51349C148.578 2.0366 159.881 7.64253 170.193 15.8005ZM71.228 212.949C62.5758 213.097 53.6932 212.041 45.3193 213.644C27.84 216.989 17.0363 231.292 16.98 249.136C16.9221 267.466 17.0983 285.798 16.8652 304.125C16.8064 308.747 18.2339 310.101 22.8423 310.089C74.9988 309.946 127.156 309.938 179.312 310.099C184.139 310.113 185.18 308.379 185.132 303.974C184.934 285.979 184.692 267.972 185.139 249.987C185.68 228.228 167.3 211.488 148.126 212.853C142.489 213.254 136.8 212.947 130.527 212.543C129.453 208.771 128.378 204.998 127.203 200.87C110.265 206.533 92.9693 206.333 75.9585 201.399C73.4602 205.355 77.32 210.59 71.228 212.949ZM45.4516 77.855C53.4068 90.6911 65.233 97.6381 80.021 97.8432C114.833 98.3263 149.656 97.9415 184.474 98.0714C188.745 98.0874 190.139 96.3019 190.006 92.4286C189.643 81.8101 189.697 71.161 188.873 60.5796C188.174 51.6022 185.47 42.9364 180.533 35.3471C168.147 16.3067 150.377 6.34277 127.669 6.0983C111.724 5.92663 95.7699 6.70033 79.8185 6.98411C62.8189 7.28654 46.037 23.5558 42.1237 38.5088C38.6813 51.6619 38.7397 64.7057 45.4516 77.855ZM35.5802 65.8027C34.6322 67.1992 33.0937 68.4942 32.8335 70.0089C31.321 78.8129 29.7938 87.638 28.9356 96.5202C28.5393 100.621 27.9376 102.757 23.1586 103.243C19.5773 103.607 15.761 105.437 12.8294 107.648C6.18821 112.658 3.97243 121.393 6.55395 129.266C9.08978 136.999 16.5408 142.73 25.092 142.814C28.9606 142.851 30.5359 144.093 31.6151 147.833C33.1259 153.069 35.0011 158.402 37.8161 163.027C54.7658 190.872 79.7693 203.574 111.997 198.877C141.933 194.513 161.365 176.513 170.492 147.687C171.579 144.254 172.831 142.899 176.564 142.818C188.332 142.561 196.506 133.79 196.286 122.203C196.077 111.186 187.785 103.1 176.196 103.054C144.039 102.926 111.88 103.049 79.7226 102.883C57.9294 102.77 39.4224 87.2477 35.5802 65.8027ZM34.9992 50.2404C36.0286 43.6335 37.0581 37.0266 38.1612 29.9473C28.0016 32.9516 20.3307 39.0695 16.1546 48.4738C9.19934 64.1362 12.6606 80.9448 12.1399 97.2983C12.1152 98.0762 12.9353 99.2546 13.6719 99.6177C16.6399 101.08 22.4296 96.5894 23.0963 93.27C25.1069 83.2587 27.3337 73.2773 29.9277 63.403C31.0448 59.1508 33.2731 55.1906 34.9992 50.2404Z" fill="#446DCD"/>
<path d="M131.135 212.964C136.8 212.947 142.489 213.254 148.126 212.853C167.301 211.488 185.68 228.228 185.139 249.987C184.692 267.972 184.935 285.979 185.132 303.974C185.18 308.379 184.139 310.114 179.313 310.099C127.156 309.938 74.9989 309.946 22.8423 310.089C18.234 310.101 16.8065 308.747 16.8653 304.125C17.0984 285.798 16.9222 267.466 16.9801 249.136C17.0364 231.292 27.8401 216.989 45.3194 213.644C53.6933 212.041 62.5759 213.097 71.6972 213.457C72.1603 216.623 72.0992 219.282 72.1576 221.939C72.4522 235.344 81.1397 246.084 94.8697 250.063C105.952 253.276 118.969 247.917 126.209 237.846C131.736 230.156 130.991 221.547 131.135 212.964Z" fill="#6ADBDC"/>
<path d="M45.3069 77.5097C38.7396 64.7057 38.6813 51.6619 42.1236 38.5088C46.037 23.5558 62.8188 7.28655 79.8184 6.98413C95.7699 6.70035 111.724 5.92665 127.669 6.09831C150.377 6.34279 168.147 16.3068 180.533 35.3471C185.47 42.9364 188.174 51.6023 188.873 60.5796C189.697 71.161 189.643 81.8101 190.006 92.4286C190.139 96.302 188.745 98.0874 184.474 98.0715C149.656 97.9415 114.833 98.3263 80.0209 97.8433C65.2329 97.6381 53.4067 90.6911 45.3069 77.5097Z" fill="#4670C5"/>
<path d="M35.7088 66.1276C39.4224 87.2477 57.9293 102.77 79.7226 102.883C111.88 103.049 144.039 102.926 176.196 103.054C187.785 103.1 196.077 111.186 196.286 122.203C196.505 133.79 188.332 142.561 176.564 142.818C172.831 142.899 171.579 144.254 170.492 147.687C161.365 176.513 141.933 194.513 111.997 198.877C79.7693 203.575 54.7657 190.872 37.816 163.027C35.001 158.402 33.1258 153.069 31.615 147.833C30.5358 144.093 28.9605 142.851 25.0919 142.814C16.5407 142.73 9.0897 136.999 6.55387 129.266C3.97235 121.393 6.18813 112.658 12.8294 107.648C15.761 105.437 19.5772 103.607 23.1585 103.243C27.9375 102.757 28.5392 100.621 28.9355 96.5202C29.7937 87.638 31.3209 78.8129 32.8334 70.0089C33.0936 68.4942 34.6321 67.1992 35.7088 66.1276ZM120.03 181.739C126.831 178.491 131.817 173.321 133.998 166.212C137.356 155.266 134.684 146.922 121.324 147.248C115.667 147.387 110.004 147.27 104.344 147.272C96.3525 147.276 88.3549 147.084 80.3718 147.339C71.2725 147.63 66.8212 152.953 68.4667 161.747C70.388 172.016 76.176 179.967 86.3325 182.589C97.1273 185.376 108.366 185.466 120.03 181.739ZM64.045 110.043C57.489 109.856 53.5873 112.607 53.1269 118.205C52.8145 122.003 52.8443 125.871 53.1683 129.669C53.5747 134.434 57.7056 137.907 62.3213 137.85C66.7706 137.795 70.7887 133.976 71.0723 129.286C71.2628 126.135 71.091 122.965 71.1671 119.806C71.2799 115.117 69.42 111.78 64.045 110.043ZM140.363 109.89C133.464 110.587 130.96 113.238 130.855 120.049C130.809 123.043 130.754 126.044 130.902 129.031C131.138 133.792 134.92 137.62 139.403 137.835C144.18 138.065 148.4 134.45 148.845 129.426C149.123 126.288 148.989 123.11 148.97 119.951C148.938 114.635 146.597 111.076 140.363 109.89Z" fill="#F4CCCE"/>
<path d="M130.831 212.754C130.991 221.547 131.736 230.156 126.209 237.846C118.969 247.917 105.952 253.276 94.8697 250.063C81.1398 246.084 72.4522 235.344 72.1576 221.939C72.0992 219.282 72.1603 216.623 72.1757 213.503C77.3201 210.59 73.4603 205.355 75.9586 201.399C92.9694 206.333 110.265 206.533 127.203 200.87C128.379 204.998 129.453 208.771 130.831 212.754Z" fill="#F4CDCE"/>
<path d="M34.9979 50.6691C33.2731 55.1906 31.0449 59.1508 29.9278 63.4029C27.3337 73.2773 25.1069 83.2586 23.0963 93.2699C22.4297 96.5894 16.6399 101.08 13.672 99.6177C12.9354 99.2546 12.1152 98.0762 12.14 97.2983C12.6607 80.9448 9.19938 64.1362 16.1546 48.4738C20.3308 39.0695 28.0017 32.9516 38.1612 29.9473C37.0581 37.0266 36.0287 43.6335 34.9979 50.6691Z" fill="#4570C5"/>
<path d="M119.66 181.86C108.366 185.466 97.1275 185.376 86.3327 182.589C76.1762 179.967 70.3882 172.016 68.4669 161.747C66.8214 152.953 71.2726 147.63 80.372 147.339C88.3551 147.084 96.3526 147.276 104.344 147.272C110.004 147.27 115.668 147.387 121.325 147.248C134.684 146.922 137.356 155.266 133.998 166.212C131.818 173.321 126.831 178.491 119.66 181.86ZM115.828 167.017C111.456 167.195 106.564 164.631 103.039 169.558C102.756 169.953 100.787 169.668 100.033 169.112C95.4925 165.765 90.7995 165.807 86.1651 169.068C85.3616 169.634 83.5943 169.179 82.4131 168.779C80.5016 168.132 78.7069 167.139 76.8629 166.293C76.6354 166.835 76.408 167.377 76.1805 167.918C80.0239 174.698 85.9297 178.472 93.759 178.914C99.2342 179.223 104.753 179.195 110.231 178.911C118.454 178.485 125.364 173.422 127.036 166.032C124.815 166.994 122.801 167.302 121.675 168.468C119.207 171.022 117.777 170.345 115.828 167.017ZM104.354 160.255C108.871 162.776 113.414 162.127 117.378 158.901C118.083 158.327 120.012 159.176 121.352 159.478C123.866 160.043 126.349 160.788 128.89 161.099C129.077 161.121 130.423 157.649 129.828 156.859C128.528 155.135 126.347 152.984 124.486 152.945C109.357 152.633 94.2159 152.607 79.0898 152.969C77.174 153.015 75.1039 155.623 73.5831 157.443C73.1508 157.96 74.1535 160.783 74.9342 161.003C77.4501 161.713 80.3512 163.059 82.3347 159.472C82.7019 158.808 85.6607 158.619 86.4636 159.316C90.2194 162.577 96.1372 162.579 99.8929 159.303C100.642 158.65 102.628 159.416 104.354 160.255Z" fill="#486ECE"/>
<path d="M64.4403 110.13C69.42 111.78 71.2799 115.117 71.1671 119.806C71.091 122.965 71.2628 126.135 71.0723 129.286C70.7887 133.976 66.7706 137.795 62.3213 137.85C57.7056 137.907 53.5747 134.434 53.1683 129.669C52.8443 125.871 52.8145 122.003 53.1269 118.205C53.5873 112.607 57.489 109.856 64.4403 110.13Z" fill="#3F66CB"/>
<path d="M140.769 109.914C146.597 111.076 148.938 114.635 148.97 119.951C148.989 123.11 149.124 126.288 148.846 129.426C148.4 134.45 144.18 138.065 139.403 137.835C134.92 137.62 131.138 133.792 130.902 129.031C130.754 126.044 130.809 123.043 130.855 120.049C130.96 113.238 133.464 110.587 140.769 109.914Z" fill="#3E66CB"/>
<path d="M116.151 167.291C117.777 170.345 119.207 171.021 121.675 168.468C122.801 167.302 124.814 166.994 127.036 166.032C125.364 173.422 118.454 178.485 110.231 178.911C104.753 179.195 99.2341 179.223 93.7589 178.914C85.9295 178.472 80.0238 174.698 76.1804 167.918C76.4079 167.376 76.6353 166.835 76.8628 166.293C78.7068 167.139 80.5014 168.132 82.413 168.779C83.5941 169.179 85.3614 169.634 86.1649 169.068C90.7994 165.807 95.4924 165.765 100.033 169.112C100.787 169.668 102.756 169.953 103.038 169.558C106.564 164.631 111.456 167.195 116.151 167.291Z" fill="#D6E2F8"/>
<path d="M104.199 159.892C102.628 159.416 100.642 158.65 99.8928 159.303C96.1371 162.579 90.2193 162.577 86.4635 159.316C85.6606 158.619 82.7019 158.808 82.3346 159.472C80.3511 163.059 77.45 161.713 74.9341 161.003C74.1534 160.783 73.1507 157.96 73.583 157.443C75.1038 155.623 77.1739 153.015 79.0897 152.969C94.2158 152.607 109.357 152.633 124.486 152.945C126.347 152.984 128.528 155.135 129.828 156.859C130.423 157.649 129.077 161.121 128.89 161.099C126.349 160.788 123.866 160.043 121.352 159.478C120.012 159.176 118.083 158.327 117.378 158.901C113.414 162.127 108.871 162.776 104.199 159.892Z" fill="#D0DEF6"/>
</svg>
